<svg width="10" height="14" viewBox="0 0 10 14" fill="none" xmlns="http://www.w3.org/2000/svg">
<path fill-rule="evenodd" clip-rule="evenodd" d="M4.50064 -8.58307e-06C4.36803 -8.58307e-06 4.24085 0.0526695 4.14708 0.146438C4.05331 0.240206 4.00064 0.367383 4.00064 0.499991V12.293L0.854635 9.14599C0.760749 9.0521 0.63341 8.99936 0.500635 8.99936C0.36786 8.99936 0.240521 9.0521 0.146635 9.14599C0.0527487 9.23988 3.8147e-06 9.36722 3.8147e-06 9.49999C3.8147e-06 9.63277 0.0527487 9.7601 0.146635 9.85399L4.14664 13.854C4.19308 13.9006 4.24826 13.9375 4.309 13.9627C4.36975 13.9879 4.43487 14.0009 4.50064 14.0009C4.5664 14.0009 4.63152 13.9879 4.69227 13.9627C4.75301 13.9375 4.80819 13.9006 4.85464 13.854L8.85464 9.85399C8.90112 9.8075 8.938 9.75231 8.96316 9.69158C8.98832 9.63084 9.00127 9.56574 9.00127 9.49999C9.00127 9.36722 8.94852 9.23988 8.85464 9.14599C8.76075 9.0521 8.63341 8.99936 8.50063 8.99936C8.36786 8.99936 8.24052 9.0521 8.14663 9.14599L5.00064 12.293V0.499991C5.00064 0.367383 4.94796 0.240206 4.85419 0.146438C4.76042 0.0526695 4.63324 -8.58307e-06 4.50064 -8.58307e-06Z" fill="white"/>
</svg>
