<svg width="10" height="14" viewBox="0 0 10 14" fill="none" xmlns="http://www.w3.org/2000/svg">
<path fill-rule="evenodd" clip-rule="evenodd" d="M4.50063 14.0009C4.63324 14.0009 4.76042 13.9482 4.85419 13.8544C4.94795 13.7607 5.00063 13.6335 5.00063 13.5009L5.00063 1.70789L8.14663 4.85489C8.24052 4.94878 8.36786 5.00153 8.50063 5.00153C8.63341 5.00153 8.76074 4.94878 8.85463 4.85489C8.94852 4.76101 9.00126 4.63367 9.00126 4.50089C9.00126 4.36812 8.94852 4.24078 8.85463 4.14689L4.85463 0.146894C4.80819 0.100331 4.75301 0.0633877 4.69226 0.0381812C4.63152 0.0129748 4.5664 0 4.50063 0C4.43486 0 4.36974 0.0129748 4.309 0.0381812C4.24825 0.0633877 4.19308 0.100331 4.14663 0.146894L0.146631 4.14689C0.100144 4.19338 0.0632674 4.24857 0.0381083 4.30931C0.0129493 4.37005 0 4.43515 0 4.50089C0 4.63367 0.0527448 4.76101 0.146631 4.85489C0.240518 4.94878 0.367856 5.00153 0.500632 5.00153C0.633407 5.00153 0.760745 4.94878 0.854632 4.85489L4.00063 1.70789L4.00063 13.5009C4.00063 13.6335 4.05331 13.7607 4.14708 13.8544C4.24085 13.9482 4.36802 14.0009 4.50063 14.0009Z" fill="white"/>
</svg>
