<svg width="44" height="64" viewBox="0 0 44 64" fill="none" xmlns="http://www.w3.org/2000/svg">
<path d="M16.5 42.5V17.5H27.5V42.5L35 34.5L43 42L22 63L1 41.5L8.5 34.5L16.5 42.5Z" fill="white"/>
<path d="M27.5 14.5H16.5V11H27.5V14.5Z" fill="white"/>
<path d="M16.5 7.5V5.5H27.5V7.5H16.5Z" fill="white"/>
<path d="M16.5 2.5H27.5V1H22H16.5V2.5Z" fill="white"/>
<path d="M16.5 42.5V17.5H27.5V42.5L35 34.5L43 42L22 63L1 41.5L8.5 34.5L16.5 42.5Z" stroke="white"/>
<path d="M27.5 14.5H16.5V11H27.5V14.5Z" stroke="white"/>
<path d="M16.5 7.5V5.5H27.5V7.5H16.5Z" stroke="white"/>
<path d="M16.5 2.5H27.5V1H22H16.5V2.5Z" stroke="white"/>
</svg>
