<svg width="14" height="10" viewBox="0 0 14 10" fill="none" xmlns="http://www.w3.org/2000/svg">
<path fill-rule="evenodd" clip-rule="evenodd" d="M14.0009 4.50063C14.0009 4.63324 13.9482 4.76042 13.8544 4.85418C13.7607 4.94795 13.6335 5.00063 13.5009 5.00063L1.70789 5.00063L4.85489 8.14663C4.94878 8.24052 5.00153 8.36786 5.00153 8.50063C5.00153 8.63341 4.94878 8.76074 4.85489 8.85463C4.76101 8.94852 4.63367 9.00126 4.50089 9.00126C4.36812 9.00126 4.24078 8.94852 4.14689 8.85463L0.146894 4.85463C0.100331 4.80819 0.0633878 4.75301 0.0381813 4.69226C0.0129749 4.63152 5.44538e-08 4.5664 5.36695e-08 4.50063C5.28852e-08 4.43486 0.0129748 4.36974 0.0381813 4.309C0.0633877 4.24825 0.100331 4.19308 0.146894 4.14663L4.14689 0.146631C4.19338 0.100143 4.24857 0.0632674 4.30931 0.0381083C4.37005 0.0129492 4.43515 -5.28886e-08 4.50089 -5.36726e-08C4.63367 -5.5256e-08 4.76101 0.0527448 4.85489 0.146631C4.94878 0.240518 5.00153 0.367856 5.00153 0.500632C5.00153 0.633407 4.94878 0.760745 4.85489 0.854632L1.70789 4.00063L13.5009 4.00063C13.6335 4.00063 13.7607 4.05331 13.8544 4.14708C13.9482 4.24085 14.0009 4.36802 14.0009 4.50063Z" fill="white"/>
</svg>
