<svg width="6" height="10" viewBox="0 0 6 10" fill="none" xmlns="http://www.w3.org/2000/svg">
<path d="M1 0.5C1.13261 0.5 1.25979 0.552679 1.35355 0.646447C1.44732 0.740215 1.5 0.867392 1.5 1V9C1.5 9.13261 1.44732 9.25979 1.35355 9.35355C1.25979 9.44732 1.13261 9.5 1 9.5C0.867392 9.5 0.740215 9.44732 0.646447 9.35355C0.552679 9.25979 0.5 9.13261 0.5 9V1C0.5 0.867392 0.552679 0.740215 0.646447 0.646447C0.740215 0.552679 0.867392 0.5 1 0.5V0.5ZM5 0.5C5.13261 0.5 5.25979 0.552679 5.35355 0.646447C5.44732 0.740215 5.5 0.867392 5.5 1V9C5.5 9.13261 5.44732 9.25979 5.35355 9.35355C5.25979 9.44732 5.13261 9.5 5 9.5C4.86739 9.5 4.74021 9.44732 4.64645 9.35355C4.55268 9.25979 4.5 9.13261 4.5 9V1C4.5 0.867392 4.55268 0.740215 4.64645 0.646447C4.74021 0.552679 4.86739 0.5 5 0.5V0.5Z" fill="white"/>
</svg>
