<svg width="60" height="60" viewBox="0 0 60 60" fill="none" xmlns="http://www.w3.org/2000/svg">
<path d="M23.501 43C23.2435 42.9993 22.9905 42.9323 22.7664 42.8054C22.5327 42.6765 22.3382 42.4869 22.2033 42.2567C22.0684 42.0264 21.9982 41.7641 22 41.4973V19.5C22 19.2335 22.071 18.9718 22.2057 18.7419C22.3404 18.5119 22.534 18.322 22.7664 18.1917C22.9989 18.0613 23.2619 17.9953 23.5284 18.0003C23.7949 18.0053 24.0552 18.0811 24.2826 18.2201L42.2822 29.2186C42.5014 29.3526 42.6826 29.5407 42.8083 29.7648C42.934 29.9889 43 30.2416 43 30.4985C43 30.7554 42.934 31.0081 42.8083 31.2322C42.6826 31.4563 42.5014 31.6444 42.2822 31.7784L24.2826 42.777C24.0477 42.9221 23.7771 42.9993 23.501 43ZM23.5035 18.9982C23.4166 18.999 23.3314 19.0216 23.2556 19.064C23.1774 19.1067 23.1123 19.1698 23.0673 19.2467C23.0224 19.3235 22.9991 19.4112 23.0002 19.5002V41.4971C23.0002 41.586 23.0238 41.6732 23.0687 41.7498C23.1136 41.8265 23.1782 41.8898 23.2556 41.9332C23.3331 41.9767 23.4208 41.9987 23.5096 41.997C23.5985 41.9954 23.6852 41.9701 23.761 41.9238L41.7606 30.9252C41.8337 30.8806 41.8941 30.8179 41.936 30.7432C41.9779 30.6685 41.9999 30.5843 41.9999 30.4986C41.9999 30.413 41.9779 30.3288 41.936 30.2541C41.8941 30.1794 41.8337 30.1167 41.7606 30.072L23.7612 19.0735C23.684 19.0248 23.5948 18.9987 23.5036 18.9982H23.5035Z" fill="white"/>
<circle cx="30" cy="30" r="29.5" stroke="white"/>
</svg>
