<svg width="14" height="10" viewBox="0 0 14 10" fill="none" xmlns="http://www.w3.org/2000/svg">
<path fill-rule="evenodd" clip-rule="evenodd" d="M6.47899e-06 4.50062C6.47319e-06 4.36801 0.0526846 4.24083 0.146453 4.14707C0.240221 4.0533 0.367398 4.00062 0.500006 4.00062L12.293 4.00062L9.14601 0.85462C9.05212 0.760734 8.99937 0.633395 8.99937 0.50062C8.99937 0.367845 9.05212 0.240506 9.14601 0.14662C9.23989 0.0527336 9.36723 -1.12415e-05 9.50001 -1.12474e-05C9.63278 -1.12532e-05 9.76012 0.0527336 9.85401 0.14662L13.854 4.14662C13.9006 4.19307 13.9375 4.24824 13.9627 4.30899C13.9879 4.36973 14.0009 4.43485 14.0009 4.50062C14.0009 4.56639 13.9879 4.63151 13.9627 4.69225C13.9375 4.753 13.9006 4.80817 13.854 4.85462L9.85401 8.85462C9.80752 8.90111 9.75233 8.93798 9.69159 8.96314C9.63085 8.9883 9.56575 9.00125 9.50001 9.00125C9.36723 9.00125 9.23989 8.94851 9.14601 8.85462C9.05212 8.76073 8.99937 8.6334 8.99937 8.50062C8.99937 8.36784 9.05212 8.24051 9.14601 8.14662L12.293 5.00062L0.500007 5.00062C0.367398 5.00062 0.240221 4.94794 0.146453 4.85417C0.0526846 4.76041 6.48479e-06 4.63323 6.47899e-06 4.50062Z" fill="black"/>
</svg>
