<svg xmlns="http://www.w3.org/2000/svg" xml:space="preserve" width="779.527px" height="305.652px" x="0px" y="0px" viewBox="0 0 779.527 305.652"><path fill="#F27620" d="M0 712.653h779.527V407H0v305.653zM35.433 263.118h99.031l24.894-60.845 45.791 60.845h213.326l65.959-61.454-10.992 61.454h83.585l68.958-60.817-9.449 60.817h90.128l37.432-169.661h-90.581l-73.41 64.688 14.173-64.688H507.42l-94.761 94.961L452.271 72.17h144.912l6.633-29.637H223.864L212.69 72.17h139.733L293.55 221.399l-46.427-61 80.224-66.941h-67.141l-82.313 65.824 27.71-65.824H107.48l-72.047 169.66"/></svg>